Coordinates
version=1
nRows=13
nColumns=38
inDegrees=no

Units are S.I. units (second, meters, Newtons, ...)
If the header above contains a line with 'inDegrees', this indicates whether rotational values are in degrees (yes) or radians (no).

endheader
time	pelvis_tilt	pelvis_list	pelvis_rotation	pelvis_tx	pelvis_ty	pelvis_tz	hip_flexion_r	hip_adduction_r	hip_rotation_r	knee_angle_r	ankle_angle_r	subtalar_angle_r	mtp_angle_r	hip_flexion_l	hip_adduction_l	hip_rotation_l	knee_angle_l	ankle_angle_l	subtalar_angle_l	mtp_angle_l	lumbar_extension	lumbar_bending	lumbar_rotation	arm_flex_r	arm_add_r	arm_rot_r	elbow_flex_r	pro_sup_r	wrist_flex_r	wrist_dev_r	arm_flex_l	arm_add_l	arm_rot_l	elbow_flex_l	pro_sup_l	wrist_flex_l	wrist_dev_l
3.96	0.0393511	0.03617	-0.0700331	2.02529	1.04381	-0.506911	0.327734	-0.102396	0.0539167	1.22402	-0.102175	-0.00584673	4.14178e-11	0.0819792	0.086817	-0.0978192	0.184803	0.153892	-0.0564993	2.67081e-11	-0.287024	-0.0451369	-0.0185592	-0.207726	-0.175708	-0.26796	0.85791	1.50136	3.83683e-12	-2.35588e-11	-0.104342	-0.19173	-0.183311	0.861221	1.4638	2.56252e-12	-1.69405e-11
3.965	0.0381259	0.0334422	-0.0661019	2.03079	1.04443	-0.507338	0.342301	-0.0990162	0.0489725	1.22245	-0.0960593	-0.00679068	4.14178e-11	0.073004	0.0854322	-0.0910331	0.176662	0.155259	-0.0561968	2.67081e-11	-0.286875	-0.040732	-0.0235873	-0.21285	-0.174021	-0.268785	0.854717	1.50293	3.83683e-12	-2.35588e-11	-0.101713	-0.193941	-0.182487	0.868861	1.463	2.56252e-12	-1.69405e-11
3.97	0.0371449	0.0307632	-0.0622901	2.0363	1.04501	-0.507748	0.356201	-0.0959089	0.0438106	1.21975	-0.0897763	-0.00761658	4.14178e-11	0.0637642	0.0840302	-0.0843222	0.168529	0.15655	-0.0560482	2.67081e-11	-0.286953	-0.0364386	-0.0284032	-0.218185	-0.172329	-0.269775	0.851786	1.50437	3.83683e-12	-2.35588e-11	-0.0989536	-0.196077	-0.18162	0.876629	1.46225	2.56252e-12	-1.69405e-11
3.975	0.0364302	0.0281374	-0.0586505	2.04181	1.04556	-0.508134	0.369412	-0.0930322	0.0385198	1.21597	-0.0833352	-0.00833975	4.14178e-11	0.054235	0.0826075	-0.077751	0.160414	0.157785	-0.0560237	2.67081e-11	-0.287286	-0.032277	-0.0329571	-0.223697	-0.170629	-0.2709	0.849074	1.50565	3.83683e-12	-2.35588e-11	-0.0960646	-0.198139	-0.180705	0.884513	1.46156	2.56252e-12	-1.69405e-11
3.98	0.0359973	0.0255675	-0.0552282	2.04733	1.04607	-0.508492	0.381917	-0.0903402	0.0331815	1.21113	-0.0767522	-0.00897703	3.2138e-11	0.0443997	0.0811605	-0.0713761	0.152325	0.158981	-0.0560937	1.01725e-11	-0.287892	-0.0282643	-0.0372075	-0.22935	-0.168921	-0.272129	0.846537	1.50674	5.00725e-12	-2.51944e-11	-0.0930452	-0.200133	-0.179739	0.892499	1.46093	1.9382e-12	-1.80519e-11
3.985	0.0358525	0.0230559	-0.0520579	2.05285	1.04654	-0.508817	0.393708	-0.0877874	0.0278663	1.20523	-0.0700496	-0.00954525	3.2138e-11	0.0342543	0.0796868	-0.0652426	0.144273	0.160152	-0.0562319	1.01725e-11	-0.288787	-0.0244151	-0.0411238	-0.235104	-0.167199	-0.273432	0.844127	1.5076	5.00725e-12	-2.51944e-11	-0.0898955	-0.202065	-0.178716	0.90057	1.46035	1.9382e-12	-1.80519e-11
3.99	0.03599	0.0206045	-0.0491618	2.05838	1.04698	-0.509106	0.404788	-0.0853308	0.0226327	1.19831	-0.0632552	-0.0100601	3.2138e-11	0.0238116	0.0781862	-0.0593814	0.136272	0.16131	-0.0564182	1.01725e-11	-0.289971	-0.02074	-0.0446884	-0.24092	-0.165459	-0.274785	0.841798	1.50823	5.00725e-12	-2.51944e-11	-0.0866164	-0.203941	-0.177633	0.908708	1.45981	1.9382e-12	-1.80519e-11
3.995	0.0363904	0.0182155	-0.04655	2.06392	1.04737	-0.509356	0.415174	-0.0829328	0.0175271	1.19037	-0.0564017	-0.0105359	3.2138e-11	0.0131037	0.0766607	-0.0538106	0.128342	0.162465	-0.0566373	1.01725e-11	-0.291431	-0.0172457	-0.047896	-0.246756	-0.163698	-0.276166	0.839503	1.50862	5.00725e-12	-2.51944e-11	-0.08321	-0.205768	-0.176487	0.916895	1.4593	1.9382e-12	-1.80519e-11
4	0.0370203	0.0158914	-0.0442215	2.06946	1.04771	-0.509567	0.424895	-0.0805615	0.0125856	1.18141	-0.049526	-0.0109852	3.2138e-11	0.0021821	0.0751146	-0.0485388	0.120508	0.163627	-0.0568756	1.01725e-11	-0.29314	-0.013936	-0.0507525	-0.252573	-0.161911	-0.277557	0.837202	1.50878	5.00725e-12	-2.51944e-11	-0.0796803	-0.207553	-0.175278	0.92511	1.45885	1.9382e-12	-1.80519e-11
4.005	0.0378355	0.0136358	-0.0421662	2.075	1.04801	-0.50974	0.43399	-0.0781924	0.00783496	1.17144	-0.0426685	-0.0114192	3.2138e-11	-0.00888683	0.0735546	-0.0435677	0.112798	0.164809	-0.0571202	1.01725e-11	-0.295057	-0.0108115	-0.053273	-0.258336	-0.160097	-0.278944	0.834854	1.50874	5.00725e-12	-2.51944e-11	-0.0760331	-0.209301	-0.174007	0.933335	1.45844	1.9382e-12	-1.80519e-11
4.01	0.0387833	0.0114541	-0.0403667	2.08055	1.04826	-0.509874	0.442503	-0.0758084	0.0032953	1.16044	-0.0358724	-0.0118478	3.2138e-11	-0.020026	0.0719902	-0.0388945	0.105246	0.166026	-0.0573576	1.01725e-11	-0.297134	-0.00787204	-0.0554807	-0.264012	-0.158255	-0.280314	0.832426	1.50851	5.00725e-12	-2.51944e-11	-0.0722768	-0.211015	-0.172674	0.94155	1.45808	1.9382e-12	-1.80519e-11
4.015	0.0398064	0.00935395	-0.0388008	2.08609	1.04845	-0.509972	0.450481	-0.0734003	-0.00101802	1.14841	-0.0291838	-0.0122803	3.2138e-11	-0.0311518	0.0704335	-0.0345154	0.0978854	0.167293	-0.0575715	1.01725e-11	-0.299311	-0.00511721	-0.0574039	-0.269573	-0.156384	-0.281658	0.82989	1.50809	5.00725e-12	-2.51944e-11	-0.0684215	-0.212698	-0.171283	0.949733	1.45778	1.9382e-12	-1.80519e-11
4.02	0.0408461	0.00734558	-0.0374436	2.09162	1.04858	-0.510037	0.457965	-0.070966	-0.00509303	1.13533	-0.0226513	-0.0127259	3.2138e-11	-0.0421799	0.0688995	-0.0304265	0.0907499	0.168627	-0.0577433	1.01725e-11	-0.30153	-0.0025476	-0.0590754	-0.274993	-0.154489	-0.282969	0.827222	1.50751	5.00725e-12	-2.51944e-11	-0.0644796	-0.214352	-0.169838	0.957866	1.45752	1.9382e-12	-1.80519e-11
